<?xml version="1.0" encoding="utf-8"?>
<!-- Generator: Adobe Illustrator 23.0.5, SVG Export Plug-In . SVG Version: 6.00 Build 0)  -->
<svg version="1.1" id="Layer_1" xmlns="http://www.w3.org/2000/svg" xmlns:xlink="http://www.w3.org/1999/xlink" x="0px" y="0px"
	 viewBox="0 0 1000 1000" style="enable-background:new 0 0 1000 1000;" xml:space="preserve">
<style type="text/css">
	.st0{fill:#7AC143;}
	.st1{fill:#7DC242;stroke:#75CAC3;stroke-miterlimit:10;}
	.st2{fill:#7DC242;stroke:#5BBA47;stroke-miterlimit:10;}
	.st3{fill:#7AC143;stroke:#7AC143;stroke-miterlimit:10;}
	.st4{fill:#7DC242;}
</style>
<g>
	<g transform="translate(0.000000,511.000000) scale(0.100000,-0.100000)">
		<path class="st0" d="M3438.2,4771.3c-433-102.4-699.7-620.5-527.7-1028.3c15.5-38.7,69.6-114.1,117.9-166.2l88.9-96.6
			l-668.8-1590.8C2079.3,1013.7,1770.1,290.8,1762.3,283c-7.7-7.7-338.3-102.5-736.5-208.8C627.7-32,274-126.7,241.1-138.3
			C158-165.4,100-240.8,100-323.9c0-73.5,1072.8-4109.4,1107.6-4163.5c30.9-50.3,102.5-83.1,174-81.2
			c52.2,3.9,8180.2,2166.8,8379.3,2230.6c65.7,21.3,139.2,114,139.2,175.9c0,25.1-956.8,3635.8-1074.7,4053.4
			c-38.7,133.4-98.6,195.2-195.2,195.2c-40.6,0-415.6-90.8-833.1-203l-759.6-203L5645.6,2728.2
			c-1297,976.1-1391.7,1051.5-1382.1,1097.9c61.9,270.6,58,367.3-17.4,537.4c-83.1,183.6-309.3,357.6-533.5,407.9
			C3612.2,4794.5,3538.7,4794.5,3438.2,4771.3z M3679.8,4367.3c141.1-40.6,264.8-245.5,235.8-396.3c-15.5-87-143-216.5-230-233.9
			c-102.4-19.3-237.7,1.9-297.7,44.5c-139.2,104.4-185.6,351.8-87,467.8c59.9,71.5,110.2,100.5,201,119.8
			C3600.6,4388.6,3602.5,4388.6,3679.8,4367.3z M5276.4,2492.4c682.3-512.2,1237.1-937.5,1231.3-945.2
			c-11.6-9.7-4231.2-1142.4-4235.1-1136.6c-1.9,1.9,272.5,655.3,608.9,1451.6L3492.3,3310l123.7,5.8c94.7,3.9,154.6,21.3,251.3,69.6
			c69.6,34.8,137.2,59.9,146.9,52.2C4025.8,3431.8,4592.1,3006.5,5276.4,2492.4z M8964.5-209.9c260.9-982,471.6-1788,467.8-1791.8
			c-9.7-7.7-7907.6-2116.6-7911.5-2110.8C1515-4106.7,560.1-517.2,556.3-496c-1.9,17.4,357.6,119.9,1157.8,330.5
			c251.3,65.7,5008.2,1337.6,6146.7,1643c529.6,141.1,601.1,156.6,612.7,127.6C8481.2,1587.8,8701.6,772.1,8964.5-209.9z"/>
		<path class="st1" d="M7539.9,271.4c-38.7-38.7-56.1-75.4-56.1-119.8c0-34.8,44.5-226.1,98.6-429.1c54.1-201,94.7-367.3,90.8-371.1
			s-197.2,141.1-431,320.9c-518,400.1-523.8,404-608.9,404c-87,0-150.8-44.5-185.6-129.5c-27.1-61.9-19.3-96.7,166.2-794.4
			c177.8-668.8,199.1-732.6,251.3-780.9c129.5-117.9,328.6-25.1,328.6,150.8c0,25.1-44.5,212.6-98.6,415.6s-92.8,373.1-88.9,378.9
			c5.8,5.8,222.3-150.8,479.4-347.9c257.1-197.2,485.2-361.5,508.4-365.3c121.8-23.2,243.5,71.5,243.5,189.4
			c0,61.9-324.7,1310.5-371.1,1424.6c-29,75.4-87,110.2-185.6,110.2C7613.3,327.5,7586.3,315.9,7539.9,271.4z"/>
		<path class="st2" d="M5531.6-204.1c-409.8-110.2-458.1-127.6-506.4-181.7c-29-32.9-54.1-79.2-54.1-104.4
			c0-40.6,61.9-278.3,272.5-1067c116-429.1,123.7-448.4,193.3-485.2c79.3-40.6,104.4-36.7,508.4,71.5
			c556.7,146.9,574.1,152.7,624.3,206.8c69.6,75.4,61.9,202.9-15.5,276.4c-38.7,36.7-81.2,56.1-119.9,56.1
			c-32.9,0-206.8-38.7-386.6-87s-336.3-85.1-347.9-81.2c-21.3,5.8-96.6,245.5-83.1,260.9c5.8,3.9,133.4,40.6,286.1,81.2
			c150.8,42.5,295.7,87,318.9,98.6c59.9,32.9,104.4,135.3,90.8,206.8c-13.5,65.7-92.8,148.8-158.5,164.3
			c-23.2,5.8-172-23.2-328.6-65.7c-156.6-40.6-293.8-75.4-305.4-75.4c-27.1,0-92.8,251.3-71.5,270.6c7.7,7.7,158.5,50.3,334.4,96.6
			s344.1,96.7,373.1,110.2c67.6,32.8,117.9,143,100.5,220.3c-17.4,81.2-112.1,152.7-199.1,150.8
			C6018.7-80.4,5780.9-136.4,5531.6-204.1z"/>
		<path class="st3" d="M4023.9-608c-375-100.5-394.3-106.3-438.8-137.2c-23.2-15.5-50.2-58-61.8-92.8
			c-23.2-69.6-36.7-13.5,260.9-1125c48.3-179.8,96.6-351.8,106.3-380.8c29-71.5,98.6-112.1,191.4-112.1c63.8,0,92.8,11.6,137.2,56
			c71.5,73.5,71.5,125.6,0,398.2c-32.9,116-56.1,212.6-54.1,214.6c1.9,2,85.1,27.1,185.6,56.1c235.8,65.7,355.7,127.6,467.8,243.5
			c116,119.8,162.4,245.5,148.8,411.7c-21.3,245.5-162.4,442.6-365.3,502.6C4449.1-526.9,4294.5-536.5,4023.9-608z M4485.8-973.4
			c106.3-52.2,92.8-210.7-25.1-282.2c-59.9-36.7-324.7-117.9-382.7-117.9c-21.3,0-40.6,44.5-69.6,158.5
			c-23.2,87-38.7,162.3-34.8,164.3c13.5,15.5,359.5,100.5,407.9,100.5C4414.3-950.2,4460.7-959.9,4485.8-973.4z"/>
		<path class="st4" d="M2336.4-1062.3c-303.5-121.8-525.8-448.4-549-806c-30.9-465.8,326.7-877.5,817.6-943.3
			c404-52.2,804.1,291.9,881.4,755.8c63.8,380.8-145,761.6-518,945.2c-139.2,69.6-162.4,75.4-344.1,79.3
			C2467.9-1025.6,2411.8-1033.3,2336.4-1062.3z M2854.4-1477.9c195.2-116,301.5-465.8,204.9-678.5
			c-63.8-143-257.1-260.9-423.3-260.9c-375,0-601.1,577.9-336.3,856.3C2440.8-1412.1,2680.5-1377.4,2854.4-1477.9z"/>
	</g>
</g>
</svg>
